<svg width="178" height="78" viewBox="0 0 178 78" fill="none" xmlns="http://www.w3.org/2000/svg">
<g clip-path="url(#clip0_404_244)">
<path d="M99.7747 2.96338C102.177 6.97262 103.604 12.0394 103.604 17.5477C103.604 30.5167 95.6668 41.0221 85.8843 41.0221C76.1017 41.0221 68.1643 30.5167 68.1643 17.5477C68.1643 12.0394 69.6033 6.97262 72.0054 2.96338C63.7779 6.58912 58.2426 13.3525 58.2426 21.0805C58.2426 32.6434 70.6129 42.0331 85.8843 42.0331C101.156 42.0331 113.526 32.655 113.526 21.0805C113.526 13.3409 107.991 6.58912 99.7747 2.96338Z" fill="#EE7203"/>
<path d="M103.059 40.1504C108.141 44.6361 114.327 40.1737 110.439 34.5259C108.466 36.7455 105.96 38.6513 103.059 40.1504Z" fill="#EE7203"/>
<path d="M85.8958 0C82.136 0 78.5618 0.569428 75.2894 1.60369C73.4907 3.81168 72.0749 6.58909 71.1698 9.70352C75.1617 7.96037 80.0472 6.89124 85.3388 6.77503V38.8722C85.5245 38.8722 85.7101 38.907 85.8842 38.907C89.9689 38.907 93.6823 36.792 96.4906 33.3522V1.60369C93.2182 0.569428 89.644 0 85.8842 0" fill="black"/>
<path d="M52.6608 68.5175C52.6608 71.9224 51.6396 74.3977 49.6088 75.9665C47.8217 77.3262 45.1643 78.0118 41.6482 78.0118H40.3833C36.8672 78.0118 34.2098 77.3378 32.4227 75.9665C30.3803 74.3977 29.3707 71.9224 29.3707 68.5175V56.8965H33.0377V68.5175C33.0377 71.0508 33.9081 72.7359 35.6603 73.561C36.7859 74.0723 38.7819 74.3279 41.6482 74.3279C44.0271 74.3279 45.7794 73.9677 46.8934 73.2472C48.2975 72.3408 48.9938 70.7719 48.9938 68.5175V56.8965H52.6608V68.5175Z" fill="black"/>
<path d="M80.8015 78.0001L76.0785 77.9652L72.5275 72.0618H62.5245L64.741 68.4128H70.3227L66.6557 62.3234L57.1517 77.9652H52.4287L63.8823 58.8952C64.1724 58.4071 64.5669 57.9539 65.0891 57.5355C65.7042 57.0591 66.2612 56.8267 66.7602 56.8267C67.294 56.8267 67.851 57.0591 68.4196 57.5007C68.9186 57.8958 69.3131 58.3606 69.6264 58.8952L80.8015 78.0001Z" fill="black"/>
<path d="M101.747 78.0002H83.575V56.8965H87.2419V74.3279H101.747V78.0002Z" fill="black"/>
<path d="M108.745 56.8965H105.078V78.0002H108.745V56.8965Z" fill="black"/>
<path d="M132.731 60.5687H124.422V78.0002H120.79V60.5687H112.458V56.8965H132.731V60.5687Z" fill="black"/>
<path d="M159.572 56.8965L149.117 71.016V78.0002H145.473V70.9579L134.739 56.8965H139.45L147.388 67.274L154.826 56.8965H159.572Z" fill="black"/>
<path d="M178 64.3455V78.0002H174.356V64.3455C174.356 61.8354 173.207 60.5803 170.898 60.5803H168.067V56.8965H170.898C173.184 56.8965 174.936 57.5589 176.155 58.8953C177.373 60.2201 177.988 62.0446 177.988 64.3455" fill="#EE7203"/>
<path d="M27.1195 67.2159C27.1195 70.3303 26.1215 72.8986 24.1256 74.9439C22.1296 76.9892 19.5882 78.0002 16.5015 78.0002H10.6064C7.54286 78.0002 5.0015 76.9775 3.00554 74.9439C0.997979 72.8986 0 70.3303 0 67.2159C0 64.1015 0.997979 61.6378 2.98233 59.7436C4.96669 57.8494 7.50805 56.8965 10.618 56.8965H16.5131C19.6463 56.8965 22.1876 57.8494 24.172 59.7436C26.1447 61.6378 27.1311 64.1247 27.1311 67.2159M23.4873 67.5297C23.4873 65.4844 22.8375 63.8226 21.5262 62.521C20.2265 61.2195 18.5438 60.5803 16.5131 60.5803H10.618C8.59886 60.5803 6.93944 61.2311 5.63974 62.521C4.32844 63.8226 3.6786 65.4844 3.6786 67.5297C3.6786 69.575 4.32844 71.1903 5.63974 72.4454C6.95104 73.7004 8.61047 74.3279 10.618 74.3279H16.5131C18.5554 74.3279 20.2265 73.7004 21.5262 72.4454C22.8375 71.1903 23.4873 69.5517 23.4873 67.5297Z" fill="black"/>
<path d="M27.6533 77.9998L22.0716 77.9882L13.6119 70.3184H19.1937L27.6533 77.9998Z" fill="#EE7203"/>
</g>
<defs>
<clipPath id="clip0_404_244">
<rect width="178" height="78" fill="white"/>
</clipPath>
</defs>
</svg>
